<?xml version="1.0" standalone="no"?>
<!DOCTYPE svg PUBLIC "-//W3C//DTD SVG 20010904//EN"
 "http://www.w3.org/TR/2001/REC-SVG-20010904/DTD/svg10.dtd">
<svg version="1.0" xmlns="http://www.w3.org/2000/svg"
 width="240.000000pt" height="240.000000pt" viewBox="0 0 240.000000 240.000000"
 preserveAspectRatio="xMidYMid meet">
<metadata>
Created by potrace 1.11, written by Peter Selinger 2001-2013
</metadata>
<g transform="translate(0.000000,240.000000) scale(0.100000,-0.100000)"
fill="#000000" stroke="none">
<path d="M0 1200 l0 -1200 1200 0 1200 0 0 1200 0 1200 -1200 0 -1200 0 0
-1200z m1287 569 c43 -6 110 -21 148 -35 l70 -24 26 31 c30 36 81 43 122 16
39 -25 49 -81 45 -235 l-3 -134 -33 -29 c-23 -21 -43 -29 -70 -29 -52 0 -77
21 -97 79 -9 28 -25 61 -35 74 -55 70 -269 100 -408 58 -93 -28 -168 -95 -214
-189 -32 -66 -33 -69 -36 -232 -4 -188 5 -247 49 -313 61 -92 162 -137 322
-145 110 -5 198 7 269 35 l38 15 0 79 0 79 -117 0 c-65 0 -135 5 -155 10 -79
22 -104 111 -49 172 l29 33 244 3 c286 4 312 -1 342 -62 17 -36 18 -43 5 -80
-10 -29 -23 -45 -46 -56 l-33 -15 0 -147 0 -148 -70 -35 c-162 -82 -323 -113
-492 -95 -300 31 -453 144 -529 390 -21 66 -23 95 -23 250 0 154 2 184 23 250
59 195 186 334 361 398 54 20 123 33 222 41 9 0 52 -4 95 -10z"/>
</g>
</svg>
